<?xml version="1.0" encoding="UTF-8"?>
<svg width="512" height="512" viewBox="0 0 512 512" fill="none" xmlns="http://www.w3.org/2000/svg">
  <rect width="512" height="512" fill="#4CAF50" opacity="0.1"/>
  <rect x="96" y="96" width="320" height="320" rx="20" fill="white" stroke="#4CAF50" stroke-width="16"/>
  <rect x="144" y="144" width="224" height="48" rx="8" fill="#4CAF50" opacity="0.2"/>
  <rect x="144" y="224" width="224" height="16" rx="8" fill="#4CAF50" opacity="0.2"/>
  <rect x="144" y="256" width="224" height="16" rx="8" fill="#4CAF50" opacity="0.2"/>
  <rect x="144" y="288" width="224" height="16" rx="8" fill="#4CAF50" opacity="0.2"/>
  <rect x="144" y="320" width="112" height="16" rx="8" fill="#4CAF50" opacity="0.2"/>
  <path d="M352 340C352 328.954 360.954 320 372 320H392C403.046 320 412 328.954 412 340V360C412 371.046 403.046 380 392 380H372C360.954 380 352 371.046 352 360V340Z" fill="#4CAF50"/>
  <path d="M376 330L388 350" stroke="white" stroke-width="6" stroke-linecap="round"/>
  <path d="M388 330L376 350" stroke="white" stroke-width="6" stroke-linecap="round"/>
</svg> 